<?xml version="1.0" standalone="no"?>
<!DOCTYPE svg PUBLIC "-//W3C//DTD SVG 20010904//EN"
 "http://www.w3.org/TR/2001/REC-SVG-20010904/DTD/svg10.dtd">
<svg version="1.0" xmlns="http://www.w3.org/2000/svg"
 width="260.000000pt" height="260.000000pt" viewBox="0 0 260.000000 260.000000"
 preserveAspectRatio="xMidYMid meet">
<metadata>
Created by potrace 1.11, written by Peter Selinger 2001-2013
</metadata>
<g transform="translate(0.000000,260.000000) scale(0.100000,-0.100000)"
fill="#000000" stroke="none">
<path d="M498 1905 c-127 -31 -240 -100 -328 -200 -242 -276 -188 -700 116
-915 202 -143 488 -145 697 -4 l49 32 -54 39 c-29 22 -63 46 -76 55 -31 21
-21 25 71 23 47 0 77 3 78 10 1 5 2 170 3 365 l1 355 -80 5 -80 5 78 43 c42
24 77 45 77 46 0 5 -114 81 -140 94 -114 55 -293 75 -412 47z m230 -190 c20
-4 55 -16 79 -27 36 -17 43 -25 43 -50 0 -16 -3 -28 -7 -26 -77 39 -118 51
-179 55 -293 21 -487 -279 -352 -545 29 -57 106 -127 176 -160 50 -24 69 -27
152 -27 94 1 104 3 203 53 4 2 7 -10 7 -28 0 -26 -6 -33 -37 -47 -176 -74
-369 -31 -495 110 -88 98 -125 253 -93 382 26 101 112 211 206 264 55 31 71
36 134 48 17 2 31 6 33 8 4 4 91 -3 130 -10z m2 -262 c45 -26 81 -84 85 -136
6 -67 -36 -144 -95 -175 -150 -79 -318 85 -241 236 23 45 45 66 91 87 43 19
118 13 160 -12z"/>
<path d="M2103 1684 c-29 -7 -71 -23 -92 -34 -84 -42 -167 -151 -190 -247 -7
-30 -9 -12 -10 80 -2 194 6 189 -350 189 -146 0 -287 -1 -313 -1 l-46 -1 1
-367 2 -368 100 0 100 1 0 266 0 267 22 4 c23 4 23 4 24 -127 0 -72 1 -194 2
-271 l2 -140 100 0 100 0 0 264 0 264 23 8 c15 6 22 5 23 -4 1 -7 3 -124 4
-262 1 -137 3 -255 4 -261 1 -6 38 -10 101 -10 l100 1 1 160 c1 116 3 150 10
122 22 -94 95 -190 183 -241 173 -100 386 -52 510 116 31 41 32 39 -58 79
l-59 27 -63 -44 c-59 -40 -112 -59 -156 -57 -10 0 -28 1 -41 2 -35 2 -104 50
-123 87 -10 18 -15 36 -12 39 3 3 133 7 289 8 l284 2 5 50 c15 151 -71 300
-213 370 -85 42 -178 52 -264 29z m187 -169 c29 -15 90 -74 90 -87 0 -4 -1
-11 -2 -15 -2 -4 -85 -8 -185 -8 -154 -1 -183 2 -183 14 0 24 85 98 126 109
45 12 117 6 154 -13z"/>
</g>
</svg>
